<svg width="58" height="16" viewBox="0 0 58 16" fill="none" xmlns="http://www.w3.org/2000/svg">
<path d="M37.2742 1.75391H40.0416V11.2553C40.0416 11.5167 40.0805 11.7198 40.1584 11.866C40.2294 12.001 40.3441 12.1065 40.483 12.1643C40.6407 12.2246 40.8082 12.254 40.9766 12.2509C41.1072 12.2508 41.2377 12.2396 41.3665 12.2176L41.6654 12.1579L42.1006 14.2613C41.9616 14.3053 41.7667 14.3562 41.516 14.414C41.2149 14.482 40.9081 14.5199 40.5998 14.5269C39.9329 14.5534 39.3483 14.4627 38.8459 14.2549C38.3689 14.0642 37.9624 13.7254 37.6837 13.2863C37.4056 12.8479 37.2691 12.295 37.2742 11.6274V1.75391ZM41.9185 4.19531V6.31857H35.9118V4.19531H41.9185ZM35.5579 7.10184L33.0248 7.26091C32.9827 7.04114 32.8871 6.83576 32.7468 6.66369C32.5953 6.47544 32.4013 6.32753 32.1816 6.23265C31.9222 6.11564 31.6406 6.05888 31.3572 6.06648C30.9285 6.06648 30.5668 6.15951 30.2721 6.34556C29.9773 6.53161 29.8297 6.77494 29.8293 7.07556C29.8284 7.19375 29.8536 7.31061 29.9031 7.41744C29.9526 7.52428 30.025 7.61836 30.115 7.69266C30.3054 7.86025 30.6324 7.99517 31.0958 8.09743L32.9032 8.46882C33.8736 8.67192 34.5968 8.99928 35.0727 9.45092C35.5487 9.90256 35.7869 10.4943 35.7873 11.2262C35.7981 11.8628 35.5939 12.4837 35.209 12.9845C34.828 13.4887 34.3041 13.8823 33.6372 14.1654C32.9704 14.4485 32.2057 14.5879 31.3433 14.5837C30.0225 14.5837 28.9703 14.3027 28.1866 13.7408C27.8109 13.4774 27.4943 13.1353 27.258 12.7372C27.0216 12.3392 26.8709 11.8943 26.8158 11.4322L29.5373 11.2859C29.5695 11.476 29.6391 11.6575 29.7419 11.8195C29.8446 11.9814 29.9784 12.1205 30.1351 12.2282C30.4516 12.4408 30.8564 12.5468 31.3495 12.5463C31.8347 12.5463 32.2245 12.4517 32.5188 12.2623C32.8177 12.067 32.9692 11.8178 32.9734 11.5124C32.9728 11.3891 32.9437 11.2677 32.8883 11.1581C32.833 11.0485 32.753 10.9538 32.655 10.8818C32.4469 10.7133 32.1265 10.585 31.6936 10.4969L29.9662 10.1419C28.993 9.94304 28.2677 9.59792 27.7904 9.10651C27.3131 8.61511 27.077 7.98925 27.0821 7.22895C27.0821 6.57422 27.2554 6.01014 27.602 5.53673C27.9487 5.06331 28.4401 4.69831 29.0764 4.44172C29.7127 4.18844 30.4572 4.0618 31.3099 4.0618C32.57 4.0618 33.5617 4.33402 34.2851 4.87844C35.0085 5.42287 35.4328 6.164 35.5579 7.10184ZM23.1913 10.0481V4.19531H25.958V14.3877H23.3019V12.5364H23.1976C22.9794 13.1242 22.5866 13.6276 22.0742 13.9758C21.5543 14.3385 20.9198 14.5198 20.1709 14.5198C19.5036 14.5198 18.9169 14.365 18.4108 14.0554C17.8991 13.7405 17.4866 13.2824 17.2222 12.7352C16.9409 12.1643 16.7979 11.4809 16.7932 10.6851V4.19531H19.5599V10.1809C19.5645 10.7826 19.7228 11.2582 20.0347 11.6076C20.3466 11.9569 20.7637 12.1316 21.286 12.1316C21.6115 12.1336 21.9326 12.0539 22.2209 11.8994C22.5147 11.7364 22.7579 11.4926 22.923 11.1957C23.1061 10.8861 23.1955 10.5036 23.1913 10.0481ZM10.2235 14.3877V4.19531H12.906V5.97061H13.0138C13.1954 5.3386 13.5006 4.86093 13.9293 4.53759C14.356 4.21102 14.8768 4.03843 15.4099 4.04689C15.5597 4.04739 15.7094 4.05616 15.8583 4.07317C16.0006 4.08694 16.1418 4.11067 16.2809 4.14418V6.6573C16.104 6.60804 15.9237 6.57243 15.7415 6.55078C15.5328 6.52161 15.3224 6.50619 15.1117 6.50462C14.7311 6.49802 14.3552 6.59169 14.0203 6.7766C13.7077 6.94992 13.4472 7.20696 13.2668 7.5201C13.0805 7.85547 12.9864 8.236 12.9943 8.6215V14.3877H10.2235ZM4.91049 14.5865C3.88863 14.5865 3.0095 14.3654 2.27312 13.9233C1.54733 13.4822 0.961156 12.8371 0.584615 12.0649C0.194872 11.2733 0 10.3622 0 9.33162C0 8.2868 0.196957 7.37097 0.590871 6.58416C0.969986 5.81334 1.55866 5.17057 2.28632 4.73287C3.01854 4.28549 3.88886 4.0618 4.89728 4.0618C5.76806 4.0618 6.5304 4.22348 7.1843 4.54682C7.81316 4.84812 8.34979 5.31874 8.73655 5.90812C9.11749 6.49184 9.32742 7.17829 9.36635 7.96748H6.75748C6.68379 7.45856 6.48892 7.04929 6.17286 6.73968C5.85681 6.43006 5.4469 6.27123 4.94316 6.26318C4.54071 6.25398 4.14623 6.37859 3.81911 6.61824C3.50352 6.85495 3.25674 7.19794 3.07879 7.64721C2.90083 8.09648 2.81208 8.64257 2.81255 9.28546C2.81255 9.93594 2.89921 10.4889 3.07253 10.9443C3.24585 11.3997 3.49471 11.747 3.81911 11.9861C4.14566 12.2273 4.54027 12.3532 4.94316 12.3447C5.23836 12.3498 5.53035 12.2816 5.79401 12.1458C6.04968 12.0129 6.26681 11.8138 6.42381 11.5685C6.6007 11.2901 6.71402 10.9746 6.75539 10.6453H9.36635C9.3379 11.3759 9.12216 12.086 8.74072 12.7047C8.36507 13.2997 7.83584 13.7772 7.21141 14.0845C6.56539 14.4192 5.79841 14.5865 4.91049 14.5865Z" fill="white"/>
<path d="M48.2454 0H50.7771C51.0462 0 51.2644 0.218169 51.2644 0.487295V3.019C51.2644 3.28813 51.0462 3.5063 50.7771 3.5063H48.2454C47.9763 3.5063 47.7581 3.28813 47.7581 3.019V0.487295C47.7581 0.218169 47.9763 0 48.2454 0Z" fill="white"/>
<path d="M51.3346 9.29297H53.8663C54.1355 9.29297 54.3536 9.51114 54.3536 9.78026V12.312C54.3536 12.5811 54.1355 12.7993 53.8663 12.7993H51.3346C51.0655 12.7993 50.8473 12.5811 50.8473 12.312V9.78026C50.8473 9.51114 51.0655 9.29297 51.3346 9.29297Z" fill="white"/>
<path d="M51.3374 3.09375H53.8692C54.1383 3.09375 54.3564 3.31192 54.3564 3.58104V6.11275C54.3564 6.38188 54.1383 6.60005 53.8692 6.60005H51.3374C51.0683 6.60005 50.8501 6.38188 50.8501 6.11275V3.58104C50.8501 3.31192 51.0683 3.09375 51.3374 3.09375Z" fill="white"/>
<path d="M48.2454 12.3906H50.7771C51.0462 12.3906 51.2644 12.6088 51.2644 12.8779V15.4096C51.2644 15.6788 51.0462 15.8969 50.7771 15.8969H48.2454C47.9763 15.8969 47.7581 15.6788 47.7581 15.4096V12.8779C47.7581 12.6088 47.9763 12.3906 48.2454 12.3906Z" fill="white"/>
<path d="M54.4419 6.19531H56.9736C57.2428 6.19531 57.4609 6.41348 57.4609 6.68261V9.21432C57.4609 9.48344 57.2428 9.70161 56.9736 9.70161H54.4419C54.1728 9.70161 53.9546 9.48344 53.9546 9.21432V6.68261C53.9546 6.41348 54.1728 6.19531 54.4419 6.19531Z" fill="white"/>
</svg>
