<svg width="20" height="20" viewBox="0 0 20 20" fill="none" xmlns="http://www.w3.org/2000/svg">
<path d="M15 15.4647H14.3667C13.7 15.4647 13.0667 15.7101 12.6 16.1534L11.175 17.4914C10.525 18.1009 9.46668 18.1009 8.81668 17.4914L7.39166 16.1534C6.925 15.7101 6.28333 15.4647 5.625 15.4647H5C3.61667 15.4647 2.5 14.4118 2.5 13.1134V4.46844C2.5 3.1701 3.61667 2.11719 5 2.11719H15C16.3833 2.11719 17.5 3.1701 17.5 4.46844V13.1055C17.5 14.4039 16.3833 15.4647 15 15.4647Z" stroke="#292D32" stroke-width="1.5" stroke-miterlimit="10" stroke-linecap="round" stroke-linejoin="round"/>
<path d="M10.0589 7.61875C10.0255 7.61875 9.97552 7.61875 9.93386 7.61875C9.05886 7.58708 8.36719 6.91417 8.36719 6.075C8.36719 5.22 9.0922 4.53125 9.9922 4.53125C10.8922 4.53125 11.6172 5.22792 11.6172 6.075C11.6255 6.91417 10.9339 7.595 10.0589 7.61875Z" stroke="#292D32" stroke-width="1.5" stroke-linecap="round" stroke-linejoin="round"/>
<path d="M7.70625 10C6.59792 10.7046 6.59792 11.8525 7.70625 12.5571C8.96458 13.3567 11.0313 13.3567 12.2896 12.5571C13.3979 11.8525 13.3979 10.7046 12.2896 10C11.0313 9.20833 8.97292 9.20833 7.70625 10Z" stroke="#292D32" stroke-width="1.5" stroke-linecap="round" stroke-linejoin="round"/>
</svg>
