<svg width="21" height="22" viewBox="0 0 21 22" fill="none" xmlns="http://www.w3.org/2000/svg">
<g clip-path="url(#clip0_13152_23426)">
<rect width="20.5882" height="20.5882" transform="translate(0.111084 0.496582)" fill="white"/>
<path d="M8.6038 4.13388C9.19428 3.99567 9.79883 3.92658 10.4053 3.928C16.4102 3.928 19.8415 10.7907 19.8415 10.7907C19.3208 11.7649 18.6998 12.6821 17.9886 13.5273M12.2239 12.6094C11.9883 12.8622 11.7042 13.065 11.3885 13.2057C11.0728 13.3463 10.732 13.422 10.3865 13.4281C10.0409 13.4342 9.69769 13.3706 9.37724 13.2412C9.05679 13.1117 8.76569 12.9191 8.52131 12.6747C8.27694 12.4303 8.08428 12.1392 7.95485 11.8188C7.82541 11.4983 7.76185 11.1551 7.76795 10.8095C7.77404 10.464 7.84968 10.1232 7.99033 9.80753C8.13099 9.49184 8.3338 9.20772 8.58664 8.97212M15.5009 15.8863C14.0345 17.0041 12.2489 17.6233 10.4053 17.6535C4.40037 17.6535 0.968994 10.7907 0.968994 10.7907C2.03606 8.80218 3.51605 7.0648 5.30968 5.69516L15.5009 15.8863Z" stroke="#D0DCE4" stroke-width="1.71569" stroke-linecap="round" stroke-linejoin="round"/>
<path d="M0.968994 1.35449L19.8415 20.227" stroke="#D0DCE4" stroke-width="2.05882" stroke-linecap="round" stroke-linejoin="round"/>
</g>
<defs>
<clipPath id="clip0_13152_23426">
<rect width="20.5882" height="20.5882" fill="white" transform="translate(0.111084 0.496582)"/>
</clipPath>
</defs>
</svg>
