<svg width="25" height="25" viewBox="0 0 25 25" fill="none" xmlns="http://www.w3.org/2000/svg">
<path d="M12.7407 20.3711C13.293 20.3711 13.7407 19.9234 13.7407 19.3711C13.7407 18.8188 13.293 18.3711 12.7407 18.3711C12.1884 18.3711 11.7407 18.8188 11.7407 19.3711C11.7407 19.9234 12.1884 20.3711 12.7407 20.3711Z" stroke="white" stroke-width="2" stroke-linecap="round" stroke-linejoin="round"/>
<path d="M12.7407 13.3711C13.293 13.3711 13.7407 12.9234 13.7407 12.3711C13.7407 11.8188 13.293 11.3711 12.7407 11.3711C12.1884 11.3711 11.7407 11.8188 11.7407 12.3711C11.7407 12.9234 12.1884 13.3711 12.7407 13.3711Z" stroke="white" stroke-width="2" stroke-linecap="round" stroke-linejoin="round"/>
<path d="M12.7407 6.37109C13.293 6.37109 13.7407 5.92338 13.7407 5.37109C13.7407 4.81881 13.293 4.37109 12.7407 4.37109C12.1884 4.37109 11.7407 4.81881 11.7407 5.37109C11.7407 5.92338 12.1884 6.37109 12.7407 6.37109Z" stroke="white" stroke-width="2" stroke-linecap="round" stroke-linejoin="round"/>
</svg>
